<mxfile host="app.diagrams.net" modified="2024-03-22T01:09:42.699Z" agent="Mozilla/5.0 (Macintosh; Intel Mac OS X 10.15; rv:124.0) Gecko/20100101 Firefox/124.0" etag="lFFHuBU6TKqGWynsAMwE" version="24.0.7" type="github" pages="2">
  <diagram name="Diragrama de clases" id="-_MHmMSYFcSHYsvgNQ9a">
    <mxGraphModel dx="1195" dy="752" grid="1" gridSize="10" guides="1" tooltips="1" connect="1" arrows="1" fold="1" page="1" pageScale="1" pageWidth="850" pageHeight="1100" math="0" shadow="0">
      <root>
        <mxCell id="0" />
        <mxCell id="1" parent="0" />
        <mxCell id="0iqqLVjieEFnERAhnOkb-5" value="Usuario" style="swimlane;fontStyle=1;align=center;verticalAlign=top;childLayout=stackLayout;horizontal=1;startSize=30;horizontalStack=0;resizeParent=1;resizeParentMax=0;resizeLast=0;collapsible=1;marginBottom=0;whiteSpace=wrap;html=1;" vertex="1" parent="1">
          <mxGeometry x="320" y="380" width="200" height="188" as="geometry">
            <mxRectangle x="320" y="380" width="80" height="30" as="alternateBounds" />
          </mxGeometry>
        </mxCell>
        <mxCell id="0iqqLVjieEFnERAhnOkb-6" value="&lt;div&gt;+ nombre: string&lt;/div&gt;&lt;div&gt;+ apellido: string&lt;br&gt;&lt;/div&gt;&lt;div&gt;+ correoElectronico: string&lt;/div&gt;&lt;div&gt;+ numeroTelefono: number&lt;/div&gt;&lt;div&gt;+ historialReservas: list&lt;br&gt;&lt;/div&gt;" style="text;strokeColor=none;fillColor=none;align=left;verticalAlign=top;spacingLeft=4;spacingRight=4;overflow=hidden;rotatable=0;points=[[0,0.5],[1,0.5]];portConstraint=eastwest;whiteSpace=wrap;html=1;" vertex="1" parent="0iqqLVjieEFnERAhnOkb-5">
          <mxGeometry y="30" width="200" height="80" as="geometry" />
        </mxCell>
        <mxCell id="0iqqLVjieEFnERAhnOkb-7" value="" style="line;strokeWidth=1;fillColor=none;align=left;verticalAlign=middle;spacingTop=-1;spacingLeft=3;spacingRight=3;rotatable=0;labelPosition=right;points=[];portConstraint=eastwest;strokeColor=inherit;" vertex="1" parent="0iqqLVjieEFnERAhnOkb-5">
          <mxGeometry y="110" width="200" height="8" as="geometry" />
        </mxCell>
        <mxCell id="0iqqLVjieEFnERAhnOkb-8" value="&lt;div&gt;+ registro(): boolean&lt;/div&gt;&lt;div&gt;+ iniciarSesion(): boolean&lt;/div&gt;&lt;div&gt;+ actualizarPerfil(): boolean&lt;/div&gt;&lt;div&gt;+ verHistorialDeReservas(): list&lt;br&gt;&lt;/div&gt;" style="text;strokeColor=none;fillColor=none;align=left;verticalAlign=top;spacingLeft=4;spacingRight=4;overflow=hidden;rotatable=0;points=[[0,0.5],[1,0.5]];portConstraint=eastwest;whiteSpace=wrap;html=1;" vertex="1" parent="0iqqLVjieEFnERAhnOkb-5">
          <mxGeometry y="118" width="200" height="70" as="geometry" />
        </mxCell>
        <mxCell id="0iqqLVjieEFnERAhnOkb-9" value="Asiento" style="swimlane;fontStyle=1;align=center;verticalAlign=top;childLayout=stackLayout;horizontal=1;startSize=30;horizontalStack=0;resizeParent=1;resizeParentMax=0;resizeLast=0;collapsible=1;marginBottom=0;whiteSpace=wrap;html=1;" vertex="1" parent="1">
          <mxGeometry x="60" y="250" width="210" height="150" as="geometry" />
        </mxCell>
        <mxCell id="0iqqLVjieEFnERAhnOkb-10" value="&lt;div&gt;+ numeroAsiento : number&lt;br&gt;&lt;/div&gt;&lt;div&gt;+ claseAsiento: string&lt;br&gt;&lt;/div&gt;&lt;div&gt;+ disponible: boolean&lt;br&gt;&lt;/div&gt;" style="text;strokeColor=none;fillColor=none;align=left;verticalAlign=top;spacingLeft=4;spacingRight=4;overflow=hidden;rotatable=0;points=[[0,0.5],[1,0.5]];portConstraint=eastwest;whiteSpace=wrap;html=1;" vertex="1" parent="0iqqLVjieEFnERAhnOkb-9">
          <mxGeometry y="30" width="210" height="50" as="geometry" />
        </mxCell>
        <mxCell id="0iqqLVjieEFnERAhnOkb-11" value="" style="line;strokeWidth=1;fillColor=none;align=left;verticalAlign=middle;spacingTop=-1;spacingLeft=3;spacingRight=3;rotatable=0;labelPosition=right;points=[];portConstraint=eastwest;strokeColor=inherit;" vertex="1" parent="0iqqLVjieEFnERAhnOkb-9">
          <mxGeometry y="80" width="210" height="8" as="geometry" />
        </mxCell>
        <mxCell id="0iqqLVjieEFnERAhnOkb-12" value="&lt;div&gt;+ asignacionDeAsiento(): boolean&lt;br&gt;&lt;/div&gt;&lt;div&gt;+ verDisponibilidad(): boolean&lt;/div&gt;&lt;div&gt;+ actualizarDisponibilidad(): boolean&lt;/div&gt;" style="text;strokeColor=none;fillColor=none;align=left;verticalAlign=top;spacingLeft=4;spacingRight=4;overflow=hidden;rotatable=0;points=[[0,0.5],[1,0.5]];portConstraint=eastwest;whiteSpace=wrap;html=1;" vertex="1" parent="0iqqLVjieEFnERAhnOkb-9">
          <mxGeometry y="88" width="210" height="62" as="geometry" />
        </mxCell>
        <mxCell id="Xwf4BX6eSTh_paTz8yUK-1" value="Vuelo" style="swimlane;fontStyle=1;align=center;verticalAlign=top;childLayout=stackLayout;horizontal=1;startSize=30;horizontalStack=0;resizeParent=1;resizeParentMax=0;resizeLast=0;collapsible=1;marginBottom=0;whiteSpace=wrap;html=1;" vertex="1" parent="1">
          <mxGeometry x="570" y="230" width="240" height="180" as="geometry" />
        </mxCell>
        <mxCell id="Xwf4BX6eSTh_paTz8yUK-2" value="+ origen : string&lt;div&gt;+ destino: string&lt;/div&gt;&lt;div&gt;+ fechaHoraDeSalida: date&lt;/div&gt;&lt;div&gt;+ fechaHoraDeLlegada: date&lt;/div&gt;&lt;div&gt;+ capacidadMÃ¡ximaDeAsientos : number&lt;/div&gt;" style="text;strokeColor=none;fillColor=none;align=left;verticalAlign=top;spacingLeft=4;spacingRight=4;overflow=hidden;rotatable=0;points=[[0,0.5],[1,0.5]];portConstraint=eastwest;whiteSpace=wrap;html=1;" vertex="1" parent="Xwf4BX6eSTh_paTz8yUK-1">
          <mxGeometry y="30" width="240" height="80" as="geometry" />
        </mxCell>
        <mxCell id="Xwf4BX6eSTh_paTz8yUK-3" value="" style="line;strokeWidth=1;fillColor=none;align=left;verticalAlign=middle;spacingTop=-1;spacingLeft=3;spacingRight=3;rotatable=0;labelPosition=right;points=[];portConstraint=eastwest;strokeColor=inherit;" vertex="1" parent="Xwf4BX6eSTh_paTz8yUK-1">
          <mxGeometry y="110" width="240" height="8" as="geometry" />
        </mxCell>
        <mxCell id="Xwf4BX6eSTh_paTz8yUK-4" value="+ vuelosDisponibles(): list&lt;div&gt;+ detallesDelVuelo(): list&lt;/div&gt;&lt;div&gt;+ asientosDisponibles(): number&lt;/div&gt;" style="text;strokeColor=none;fillColor=none;align=left;verticalAlign=top;spacingLeft=4;spacingRight=4;overflow=hidden;rotatable=0;points=[[0,0.5],[1,0.5]];portConstraint=eastwest;whiteSpace=wrap;html=1;" vertex="1" parent="Xwf4BX6eSTh_paTz8yUK-1">
          <mxGeometry y="118" width="240" height="62" as="geometry" />
        </mxCell>
        <mxCell id="0iqqLVjieEFnERAhnOkb-13" value="Reserva" style="swimlane;fontStyle=1;align=center;verticalAlign=top;childLayout=stackLayout;horizontal=1;startSize=30;horizontalStack=0;resizeParent=1;resizeParentMax=0;resizeLast=0;collapsible=1;marginBottom=0;whiteSpace=wrap;html=1;" vertex="1" parent="1">
          <mxGeometry x="320" y="680" width="200" height="170" as="geometry" />
        </mxCell>
        <mxCell id="0iqqLVjieEFnERAhnOkb-14" value="&lt;div&gt;+ usuarioAsociado: usuario&lt;br&gt;&lt;/div&gt;&lt;div&gt;+ vueloAsociado: vuelo&lt;br&gt;&lt;/div&gt;&lt;div&gt;+ asientosReservados: number&lt;/div&gt;&lt;div&gt;+ estadoReserva: boolean&lt;br&gt;&lt;/div&gt;" style="text;strokeColor=none;fillColor=none;align=left;verticalAlign=top;spacingLeft=4;spacingRight=4;overflow=hidden;rotatable=0;points=[[0,0.5],[1,0.5]];portConstraint=eastwest;whiteSpace=wrap;html=1;" vertex="1" parent="0iqqLVjieEFnERAhnOkb-13">
          <mxGeometry y="30" width="200" height="70" as="geometry" />
        </mxCell>
        <mxCell id="0iqqLVjieEFnERAhnOkb-15" value="" style="line;strokeWidth=1;fillColor=none;align=left;verticalAlign=middle;spacingTop=-1;spacingLeft=3;spacingRight=3;rotatable=0;labelPosition=right;points=[];portConstraint=eastwest;strokeColor=inherit;" vertex="1" parent="0iqqLVjieEFnERAhnOkb-13">
          <mxGeometry y="100" width="200" height="8" as="geometry" />
        </mxCell>
        <mxCell id="0iqqLVjieEFnERAhnOkb-16" value="&lt;div&gt;+ crearReserva(): boolean&lt;/div&gt;&lt;div&gt;+ confirmarReserva(): boolean&lt;/div&gt;&lt;div&gt;+ cancelarReserva(): boolean&lt;br&gt;&lt;/div&gt;" style="text;strokeColor=none;fillColor=none;align=left;verticalAlign=top;spacingLeft=4;spacingRight=4;overflow=hidden;rotatable=0;points=[[0,0.5],[1,0.5]];portConstraint=eastwest;whiteSpace=wrap;html=1;" vertex="1" parent="0iqqLVjieEFnERAhnOkb-13">
          <mxGeometry y="108" width="200" height="62" as="geometry" />
        </mxCell>
        <mxCell id="0iqqLVjieEFnERAhnOkb-17" value="" style="endArrow=block;dashed=1;endFill=0;endSize=12;html=1;rounded=0;exitX=0.5;exitY=1;exitDx=0;exitDy=0;entryX=0.5;entryY=0;entryDx=0;entryDy=0;" edge="1" parent="1" source="0iqqLVjieEFnERAhnOkb-5" target="0iqqLVjieEFnERAhnOkb-13">
          <mxGeometry width="160" relative="1" as="geometry">
            <mxPoint x="340" y="520" as="sourcePoint" />
            <mxPoint x="500" y="520" as="targetPoint" />
          </mxGeometry>
        </mxCell>
        <mxCell id="0iqqLVjieEFnERAhnOkb-18" value="" style="endArrow=block;dashed=1;endFill=0;endSize=12;html=1;rounded=0;exitX=0.485;exitY=1.032;exitDx=0;exitDy=0;entryX=0.25;entryY=0;entryDx=0;entryDy=0;exitPerimeter=0;" edge="1" parent="1" source="0iqqLVjieEFnERAhnOkb-12" target="0iqqLVjieEFnERAhnOkb-13">
          <mxGeometry width="160" relative="1" as="geometry">
            <mxPoint x="170" y="390" as="sourcePoint" />
            <mxPoint x="170" y="570" as="targetPoint" />
          </mxGeometry>
        </mxCell>
        <mxCell id="0iqqLVjieEFnERAhnOkb-19" value="" style="endArrow=block;dashed=1;endFill=0;endSize=12;html=1;rounded=0;exitX=0.334;exitY=1.05;exitDx=0;exitDy=0;entryX=0.75;entryY=0;entryDx=0;entryDy=0;exitPerimeter=0;" edge="1" parent="1" source="Xwf4BX6eSTh_paTz8yUK-4" target="0iqqLVjieEFnERAhnOkb-13">
          <mxGeometry width="160" relative="1" as="geometry">
            <mxPoint x="440" y="400" as="sourcePoint" />
            <mxPoint x="440" y="580" as="targetPoint" />
          </mxGeometry>
        </mxCell>
        <mxCell id="1D4vYp2MGsvRdeYgRLv9-1" value="" style="endArrow=open;html=1;endSize=12;startArrow=diamondThin;startSize=14;startFill=1;align=left;verticalAlign=bottom;rounded=0;entryX=0.006;entryY=0.572;entryDx=0;entryDy=0;entryPerimeter=0;exitX=1;exitY=0.5;exitDx=0;exitDy=0;" edge="1" parent="1" source="0iqqLVjieEFnERAhnOkb-10" target="Xwf4BX6eSTh_paTz8yUK-2">
          <mxGeometry x="0.8574" y="7" relative="1" as="geometry">
            <mxPoint x="330" y="500" as="sourcePoint" />
            <mxPoint x="460" y="500" as="targetPoint" />
            <mxPoint as="offset" />
          </mxGeometry>
        </mxCell>
      </root>
    </mxGraphModel>
  </diagram>
  <diagram id="F8v2rw6jnUhtFCn5J1wc" name="Diagrama de estado">
    <mxGraphModel dx="1494" dy="940" grid="1" gridSize="10" guides="1" tooltips="1" connect="1" arrows="1" fold="1" page="1" pageScale="1" pageWidth="850" pageHeight="1100" math="0" shadow="0">
      <root>
        <mxCell id="0" />
        <mxCell id="1" parent="0" />
      </root>
    </mxGraphModel>
  </diagram>
</mxfile>
